<?xml version="1.0" encoding="UTF-8"?>
<svg width="700pt" height="700pt" version="1.1" viewBox="0 0 700 700" xmlns="http://www.w3.org/2000/svg">
 <path d="m567.46 213.27c-3.5156-39.172-24.52-74.664-57.164-96.598-29.164-18.969-65.27-23.93-98.469-13.535-25.09 8.5039-46.773 24.867-61.832 46.668-15.059-21.801-36.742-38.164-61.832-46.668-33.199-10.395-69.305-5.4336-98.469 13.535-32.406 21.73-53.379 56.832-57.164 95.664-2.0547 26.113 1.9766 52.348 11.773 76.641 9.8008 24.289 25.098 45.98 44.691 63.359 44.887 46.375 95.824 86.48 151.43 119.23 2.7422 1.4023 5.7852 2.125 8.8672 2.1016 3.082 0.023437 6.1211-0.69922 8.8672-2.1016 56.102-32.648 107.51-72.762 152.83-119.23 19.465-17.281 34.684-38.82 44.477-62.938 9.793-24.117 13.895-50.168 11.988-76.129z"/>
</svg>
